<svg id="Layer_1" data-name="Layer 1" xmlns="http://www.w3.org/2000/svg" viewBox="0 0 638 84.34"><defs><style>.cls-1{fill:#1b3066;}.cls-1,.cls-2{fill-rule:evenodd;}.cls-2{fill:#fffffe;}</style></defs><title>Coldwell Banker Logo Vector</title><g id="Page-2"><g id="Logo_CB_HZ_BLU_CMYK_FR" data-name="Logo CB HZ BLU CMYK FR"><polyline id="Fill-1" class="cls-1" points="192.93 22.56 185.01 22.56 185.01 61.75 212.66 61.75 212.66 54.45 192.93 54.45 192.93 22.56"/><polyline id="Fill-2" class="cls-1" points="285.54 43.05 276.35 22.61 275.39 22.61 266.2 42.99 259.13 22.61 250.7 22.61 264.67 61.54 264.76 61.8 265.94 61.8 275.89 39.95 285.74 61.75 286.97 61.75 301.19 22.61 292.76 22.61 285.54 43.05"/><polyline id="Fill-3" class="cls-1" points="304.65 61.75 332.92 61.75 332.92 54.34 312.57 54.34 312.57 46.12 330.62 46.12 330.62 38.66 312.57 38.66 312.57 29.86 332.92 29.86 332.92 22.56 304.65 22.56 304.65 61.75"/><polyline id="Fill-4" class="cls-1" points="347.23 22.56 339.32 22.56 339.32 61.75 366.97 61.75 366.97 54.45 347.23 54.45 347.23 22.56"/><polyline id="Fill-5" class="cls-1" points="378.48 22.56 370.56 22.56 370.56 61.75 398.22 61.75 398.22 54.45 378.48 54.45 378.48 22.56"/><path id="Fill-6" class="cls-1" d="M627.4,501.49a8.91,8.91,0,0,0-2.53-2,6.89,6.89,0,0,0-1.09-.47,5.79,5.79,0,0,0,.84-.47,8,8,0,0,0,2-2,10.19,10.19,0,0,0,1.3-2.52,7.9,7.9,0,0,0,.48-2.6,14.4,14.4,0,0,0-.9-5.5,8.51,8.51,0,0,0-2.46-3.42,8.89,8.89,0,0,0-3.63-1.7,19.31,19.31,0,0,0-4.31-.46H600.31v39.19h17.62a17.66,17.66,0,0,0,4.62-.59,10,10,0,0,0,3.84-2,9.56,9.56,0,0,0,2.61-3.65,14.1,14.1,0,0,0,1-5.47,8.65,8.65,0,0,0-.72-3.51,11,11,0,0,0-1.83-2.88m-5.37,6a4.73,4.73,0,0,1-.33,1.72,5.83,5.83,0,0,1-.9,1.57,4.59,4.59,0,0,1-1.31,1.11,3.29,3.29,0,0,1-1.56.4h-9.71v-9h8.95a5.09,5.09,0,0,1,3.59,1.21,3.83,3.83,0,0,1,1.27,3m-1.53-15.86a5.34,5.34,0,0,1-.26,1.59,4.54,4.54,0,0,1-.75,1.43,3.65,3.65,0,0,1-1.2,1,3.56,3.56,0,0,1-1.68.38h-8.39v-8.33h8.9a2.62,2.62,0,0,1,1.27.33,3.81,3.81,0,0,1,1.09.86,4,4,0,0,1,.74,1.25,4,4,0,0,1,.28,1.49" transform="translate(-181 -457.83)"/><path id="Fill-7" class="cls-1" d="M650.19,480.44l-19.47,39.14h8.63l2.85-6h17.11l2.91,6h8.63l-19.47-39.14Zm5.28,25.91H646l4.74-10.26,4.69,10.26Z" transform="translate(-181 -457.83)"/><polyline id="Fill-8" class="cls-1" points="518.42 45.28 494.54 22.72 494.43 22.61 493.12 22.61 493.12 61.75 501.04 61.75 501.04 39.44 525.03 61.75 526.33 61.75 526.33 22.61 518.42 22.61 518.42 45.28"/><polyline id="Fill-9" class="cls-1" points="565.85 22.61 556.08 22.61 541.82 41.31 541.82 22.56 533.9 22.56 533.9 61.75 541.82 61.75 541.82 44.91 556.92 61.75 567.41 61.75 550.2 42.81 565.85 22.61"/><polyline id="Fill-10" class="cls-1" points="570.82 61.75 599.09 61.75 599.09 54.34 578.74 54.34 578.74 46.12 596.79 46.12 596.79 38.66 578.74 38.66 578.74 29.86 599.09 29.86 599.09 22.56 570.82 22.56 570.82 61.75"/><path id="Fill-11" class="cls-1" d="M794.4,507.36h6.48c1.39,2,2.78,4.07,4.15,6s2.9,4.06,4.39,6l.11.16H819l-.45-.64c-2.95-4.17-6-8.37-9-12.49a12.44,12.44,0,0,0,5.35-4.62A14.06,14.06,0,0,0,817.1,494a14.94,14.94,0,0,0-1-5.47,12.88,12.88,0,0,0-2.71-4.33,12,12,0,0,0-4.2-2.82,14.2,14.2,0,0,0-5.38-1H786.49v39.19h7.91Zm13-8.79a4.83,4.83,0,0,1-1.72,1.12,5.45,5.45,0,0,1-1.88.37H794.4V487.69h9.42a5.13,5.13,0,0,1,2.8.67,5.05,5.05,0,0,1,1.6,1.66,6.12,6.12,0,0,1,.76,2.06,11.69,11.69,0,0,1,.2,1.93,6.58,6.58,0,0,1-.5,2.66,6.11,6.11,0,0,1-1.26,1.9Z" transform="translate(-181 -457.83)"/><path id="Fill-12" class="cls-1" d="M315.54,485.89a20.63,20.63,0,0,0-4-3.27,19.82,19.82,0,0,0-4.79-2.11,19,19,0,0,0-5.33-.75,18.59,18.59,0,0,0-7.66,1.61,20.08,20.08,0,0,0-6.26,4.36,20.55,20.55,0,0,0-4.24,6.44,20.61,20.61,0,0,0,0,15.73,20.89,20.89,0,0,0,4.24,6.45,20.3,20.3,0,0,0,6.26,4.36,18.74,18.74,0,0,0,7.66,1.6,19,19,0,0,0,5.33-.75,19.77,19.77,0,0,0,4.79-2.11,20.94,20.94,0,0,0,4-3.26,19.41,19.41,0,0,0,3.07-4.26l.21-.39-7.38-3.07-.18.27a15.51,15.51,0,0,1-1.86,2.32,13,13,0,0,1-2.35,1.91,11.8,11.8,0,0,1-2.72,1.27,9.76,9.76,0,0,1-2.94.46,10.45,10.45,0,0,1-4.61-1,12.35,12.35,0,0,1-3.73-2.77,13.63,13.63,0,0,1-2.53-4,12.66,12.66,0,0,1-.94-4.82,12.8,12.8,0,0,1,.94-4.81,13.56,13.56,0,0,1,2.53-4,12.38,12.38,0,0,1,3.73-2.78,10.58,10.58,0,0,1,4.61-1,9.75,9.75,0,0,1,2.94.45,11.8,11.8,0,0,1,2.72,1.27,14.14,14.14,0,0,1,4.21,4.18l.18.27,7.38-3.07-.21-.39a19.49,19.49,0,0,0-3.08-4.2" transform="translate(-181 -457.83)"/><path id="Fill-13" class="cls-1" d="M354.67,485.62a20.37,20.37,0,0,0-6.26-4.36,19.23,19.23,0,0,0-15.36,0,20.13,20.13,0,0,0-6.26,4.36,20.69,20.69,0,0,0-4.24,6.47,20.69,20.69,0,0,0,0,15.81,20.71,20.71,0,0,0,4.24,6.45,20.3,20.3,0,0,0,6.26,4.36,19.23,19.23,0,0,0,15.36,0,20.42,20.42,0,0,0,6.26-4.36,20.89,20.89,0,0,0,4.24-6.45,20.81,20.81,0,0,0,0-15.81,20.69,20.69,0,0,0-4.24-6.47M352.55,500a12.7,12.7,0,0,1-.93,4.83,13.64,13.64,0,0,1-2.55,4.05,12.28,12.28,0,0,1-3.75,2.8,10.65,10.65,0,0,1-9.18,0,12.32,12.32,0,0,1-3.76-2.8,13.61,13.61,0,0,1-2.54-4.05,12.8,12.8,0,0,1,0-9.63,13.24,13.24,0,0,1,2.54-4.05,12.91,12.91,0,0,1,3.76-2.77,10.74,10.74,0,0,1,9.18,0,12.73,12.73,0,0,1,3.75,2.77,13.27,13.27,0,0,1,2.55,4.05,12.77,12.77,0,0,1,.93,4.8" transform="translate(-181 -457.83)"/><g id="Group-17"><path id="Fill-14" class="cls-1" d="M425.76,485.32a18.9,18.9,0,0,0-13.4-4.93H397.25v39.19h15.11a21.89,21.89,0,0,0,7.43-1.23,17,17,0,0,0,10.22-10,25.14,25.14,0,0,0,0-16.66,17.2,17.2,0,0,0-4.25-6.36M423.52,500a16,16,0,0,1-1,6.28,10,10,0,0,1-2.62,3.71,8.42,8.42,0,0,1-3.54,1.78,17.3,17.3,0,0,1-3.94.47h-7.21V487.8h7.21a17.12,17.12,0,0,1,3.89.46,8.73,8.73,0,0,1,3.57,1.76,9.49,9.49,0,0,1,2.64,3.7,16.24,16.24,0,0,1,1,6.32" transform="translate(-181 -457.83)"/><polygon id="Fill-16" class="cls-1" points="0 84.34 82.05 84.34 82.05 0 0 0 0 84.34"/></g><path id="Fill-18" class="cls-2" d="M184.55,538.52h75V461.45h-75Zm.83-.86h73.29V462.31H185.38Z" transform="translate(-181 -457.83)"/><polyline id="Fill-19" class="cls-2" points="51.08 28.67 56.84 24.72 62.59 28.67 60.72 21.82 66.15 17.42 59.24 17.13 56.84 10.46 54.44 17.13 47.53 17.42 52.96 21.82 51.08 28.67"/><path id="Fill-20" class="cls-2" d="M242.33,511.82a10,10,0,0,0-3.64-3.13,9.16,9.16,0,0,0,2.61-2.92,11.15,11.15,0,0,0,1.48-5.61,11.58,11.58,0,0,0-.64-3.74,11.27,11.27,0,0,0-1.81-3.33,9.51,9.51,0,0,0-2.87-2.4,7.89,7.89,0,0,0-3.84-.95H214.68v17.6a9.83,9.83,0,0,1-5.2-1.07,13.82,13.82,0,0,1-3.72-3,14.61,14.61,0,0,1-2.49-4.44,15.85,15.85,0,0,1-.89-5.3,17.09,17.09,0,0,1,.75-5,13.86,13.86,0,0,1,2.24-4.4A11.46,11.46,0,0,1,209,481a10.83,10.83,0,0,1,7.58-.89,9.62,9.62,0,0,1,2.56,1,9.42,9.42,0,0,1,2.3,1.78,10.08,10.08,0,0,1,1.81,2.76l.42.92,5.1-3.4-.33-.7a14.88,14.88,0,0,0-5.49-6.27,15.88,15.88,0,0,0-8.8-2.4,16.88,16.88,0,0,0-7.71,1.73,17.94,17.94,0,0,0-5.72,4.5,19.81,19.81,0,0,0-3.54,6.29A21.5,21.5,0,0,0,201,507a19.18,19.18,0,0,0,5.65,4.6c.2.11.41.19.61.28s.25.13.38.18c.39.18.78.33,1.18.47s.54.18.81.26.82.22,1.24.31l.85.14a15.9,15.9,0,0,0,2.19.15c.26,0,.52,0,.78,0a18.5,18.5,0,0,0,3.74-.59,18.78,18.78,0,0,0,4.37-1.76c.51-.29,1-.61,1.49-.95s.64-.47.94-.72a14.66,14.66,0,0,0,1.3-1.2,11.15,11.15,0,0,0,.79-.89c.25-.31.48-.63.7-1a12.8,12.8,0,0,0,1.12-2.14l.23-.59-.55-.5h0l-3.92-3.7s-.4.95-.62,1.38a13.49,13.49,0,0,1-1,1.63,16,16,0,0,1-1.36,1.64,11.2,11.2,0,0,1-.9.8v-9.21h11a4.1,4.1,0,0,1,3.16,1.47,5.62,5.62,0,0,1,.94,1.73,6.42,6.42,0,0,1,.36,2.17,5.71,5.71,0,0,1-.37,2.07,5.54,5.54,0,0,1-1,1.7,4.63,4.63,0,0,1-1.49,1.14,4.15,4.15,0,0,1-1.88.41h-1.66c-.19.35-.39.69-.6,1a14.12,14.12,0,0,1-1.71,2.13,18.24,18.24,0,0,1-2.73,2.31c-.16.11-.09.18,0,.18h8.14a4.05,4.05,0,0,1,1.87.43,4.78,4.78,0,0,1,1.49,1.2,6.33,6.33,0,0,1,1,1.82,6.17,6.17,0,0,1,.38,2.13,5.71,5.71,0,0,1-.4,2.09,5.42,5.42,0,0,1-1.1,1.74,5.63,5.63,0,0,1-1.65,1.21,4.33,4.33,0,0,1-2,.44H221v-9.15a20.32,20.32,0,0,1-2.17.7,19.46,19.46,0,0,1-4.08.61h-.09V528.9H232.8a12.94,12.94,0,0,0,4.4-.74,11.51,11.51,0,0,0,3.66-2.1,10,10,0,0,0,3.45-7.69,11,11,0,0,0-2-6.55" transform="translate(-181 -457.83)"/><path id="Fill-21" class="cls-2" d="M242.45,528.6l.18-.22a1.25,1.25,0,0,0,.8.28c.38,0,.59-.2.59-.45s-.31-.39-.67-.46-.92-.13-.92-.7.51-.73.9-.73a1.39,1.39,0,0,1,.85.27l-.16.25a1.12,1.12,0,0,0-.71-.23c-.23,0-.56.11-.56.43s.5.39.8.46.79.16.79.71-.42.74-.9.74a1.39,1.39,0,0,1-1-.35" transform="translate(-181 -457.83)"/><polyline id="Fill-22" class="cls-2" points="63.63 71.06 63.63 68.53 63.69 68.53 64.85 70 66.02 68.53 66.08 68.53 66.08 71.06 65.77 71.06 65.77 69.36 64.85 70.53 63.95 69.36 63.95 71.06 63.63 71.06"/></g></g></svg>